HIERARCHY
ROOT root
{
	OFFSET 0.000000 0.000000 0.000000
	CHANNELS 6 Xposition Yposition Zposition Zrotation Yrotation Xrotation
	JOINT lhip
	{
		OFFSET 0.058581 -0.082280 -0.017664
		CHANNELS 3 Zrotation Yrotation Xrotation
		JOINT lknee
		{
			OFFSET 0.043451 -0.386469 0.008037
			CHANNELS 3 Zrotation Yrotation Xrotation
			JOINT lankle
			{
				OFFSET -0.014790 -0.426874 -0.037428
				CHANNELS 3 Zrotation Yrotation Xrotation
				JOINT ltoe
				{
					OFFSET 0.041054 -0.060286 0.122042
					CHANNELS 3 Zrotation Yrotation Xrotation
					End Site
					{
						OFFSET 0.000000 0.000000 0.000000
					}
				}
			}
		}
	}
	JOINT rhip
	{
		OFFSET -0.060310 -0.090513 -0.013543
		CHANNELS 3 Zrotation Yrotation Xrotation
		JOINT rknee
		{
			OFFSET -0.043257 -0.383688 -0.004843
			CHANNELS 3 Zrotation Yrotation Xrotation
			JOINT rankle
			{
				OFFSET 0.019056 -0.420046 -0.034562
				CHANNELS 3 Zrotation Yrotation Xrotation
				JOINT rtoe
				{
					OFFSET -0.034840 -0.062106 0.130323
					CHANNELS 3 Zrotation Yrotation Xrotation
					End Site
					{
						OFFSET 0.000000 0.000000 0.000000
					}
				}
			}
		}
	}
	JOINT lowerback
	{
		OFFSET 0.004439 0.124404 -0.038385
		CHANNELS 3 Zrotation Yrotation Xrotation
		JOINT upperback
		{
			OFFSET 0.004488 0.137956 0.026820
			CHANNELS 3 Zrotation Yrotation Xrotation
			JOINT chest
			{
				OFFSET -0.002265 0.056032 0.002855
				CHANNELS 3 Zrotation Yrotation Xrotation
				JOINT lowerneck
				{
					OFFSET -0.013390 0.211636 -0.033468
					CHANNELS 3 Zrotation Yrotation Xrotation
					JOINT upperneck
					{
						OFFSET 0.010113 0.088937 0.050410
						CHANNELS 3 Zrotation Yrotation Xrotation
						End Site
						{
							OFFSET 0.000000 0.000000 0.000000
						}
					}
				}
				JOINT lclavicle
				{
					OFFSET 0.071702 0.114000 -0.018898
					CHANNELS 3 Zrotation Yrotation Xrotation
					JOINT lshoulder
					{
						OFFSET 0.122921 0.045205 -0.019046
						CHANNELS 3 Zrotation Yrotation Xrotation
						JOINT lelbow
						{
							OFFSET 0.255332 -0.015649 -0.022946
							CHANNELS 3 Zrotation Yrotation Xrotation
							JOINT lwrist
							{
								OFFSET 0.265709 0.012698 -0.007375
								CHANNELS 3 Zrotation Yrotation Xrotation
								End Site
								{
									OFFSET 0.000000 0.000000 0.000000
								}
							}
						}
					}
				}
				JOINT rclavicle
				{
					OFFSET -0.082954 0.112472 -0.023707
					CHANNELS 3 Zrotation Yrotation Xrotation
					JOINT rshoulder
					{
						OFFSET -0.113228 0.046853 -0.008472
						CHANNELS 3 Zrotation Yrotation Xrotation
						JOINT relbow
						{
							OFFSET -0.260127 -0.014369 -0.031269
							CHANNELS 3 Zrotation Yrotation Xrotation
							JOINT rwrist
							{
								OFFSET -0.269108 0.006794 -0.006027
								CHANNELS 3 Zrotation Yrotation Xrotation
								End Site
								{
									OFFSET 0.000000 0.000000 0.000000
								}
							}
						}
					}
				}
			}
		}
	}
}
MOTION
Frames: 7
Frame Time: 0.033333
1.786413 0.226916 0.986578 -78.779084 5.026034 88.479818 5.237863 1.923710 6.374302 -2.879013 -9.237369 6.650518 2.344546 9.767051 -22.069717 0.000000 -0.000000 0.000000 0.417418 -1.875813 -10.155202 3.166834 -4.146904 2.190564 4.187379 -4.116559 2.122021 0.000000 -0.000000 0.000000 -1.220864 1.141285 4.176372 3.049013 -3.860574 7.547267 2.286152 -2.232690 1.831738 1.529446 0.054125 -0.431474 4.836856 -2.250143 -9.859977 -20.634307 -6.390441 8.086464 -61.999311 -9.794605 12.912821 8.853669 -30.042217 14.827588 5.531863 -6.188900 -6.797824 19.694902 2.041356 5.292142 64.550358 1.093515 9.602328 -20.806831 29.866075 -2.328227 -1.488186 2.426890 -9.863613 
1.786334 0.226847 0.986591 -78.755175 5.072740 88.369907 5.317191 1.812762 6.548099 -2.926114 -9.344012 6.575128 2.327820 9.942374 -21.964545 0.000000 -0.000000 0.000000 0.384016 -2.198905 -10.124993 3.384708 -4.313911 2.327647 4.549100 -4.141034 2.794562 0.000000 -0.000000 0.000000 -1.115733 1.159859 4.611675 2.973043 -3.824488 7.056581 2.385636 -2.308373 2.033063 1.491142 -0.132556 -0.456844 4.873358 -2.259717 -9.839528 -20.556231 -6.535994 8.142908 -62.171817 -9.691747 12.774194 9.023991 -30.114542 14.610924 5.901874 -6.082687 -6.783194 19.655780 2.158542 5.320803 64.539785 1.030115 9.432846 -20.810954 29.840202 -2.342060 -1.444804 2.530039 -9.759263 
1.786277 0.226756 0.986539 -78.662023 5.099844 88.404455 5.403493 1.802562 6.524969 -2.967066 -9.399736 6.557130 2.358533 9.941659 -21.946754 0.000000 -0.000000 0.000000 0.272104 -2.295071 -10.149051 3.552483 -4.485269 2.377821 4.789113 -4.265147 3.459712 0.000000 -0.000000 0.000000 -1.054226 1.142989 4.727988 2.995517 -3.806589 6.931982 2.412468 -2.336744 2.061163 1.481331 -0.296762 -0.390078 4.872688 -2.236233 -9.924116 -20.522036 -6.519134 8.166545 -62.210476 -9.772622 12.715191 8.967391 -30.004251 14.758273 5.757087 -6.087223 -6.789152 19.643334 2.119359 5.279444 64.476176 0.976521 9.369705 -20.757837 29.839132 -2.364553 -1.247719 2.472430 -9.772139 
1.785703 0.226858 0.986179 -78.543239 4.977626 88.265142 5.405405 1.832017 6.790086 -3.086669 -9.607581 6.446483 2.368228 9.969742 -21.976607 0.000000 -0.000000 0.000000 -0.073143 -2.218388 -9.840047 3.781850 -4.779255 2.207336 5.098768 -4.541464 4.092141 0.000000 -0.000000 0.000000 -1.145321 1.000741 5.043367 2.976656 -3.807160 6.827516 2.463926 -2.346162 2.164290 1.447496 -0.178954 -0.424754 4.981508 -2.113580 -9.727133 -20.334284 -6.600011 8.205350 -62.431351 -9.838999 12.623926 9.045135 -29.928253 14.704219 5.475888 -5.975060 -6.723006 19.617041 2.244389 5.258860 64.475808 0.941404 9.306528 -20.772735 29.816610 -2.595476 -1.122735 2.579864 -9.519651 
1.785573 0.226833 0.986140 -78.521701 4.959529 88.294792 5.392652 1.845652 6.770954 -3.085932 -9.633510 6.448047 2.393274 9.972053 -21.983276 0.000000 -0.000000 0.000000 -0.116552 -2.229956 -9.838995 3.790443 -4.751271 2.182090 5.142736 -4.550632 4.178441 0.000000 -0.000000 0.000000 -1.115094 0.969611 5.102356 2.973492 -3.817492 6.781367 2.459996 -2.347820 2.151624 1.385863 -0.184420 -0.429379 4.983402 -2.071230 -9.683323 -20.357811 -6.641713 8.227966 -62.447845 -9.800190 12.613429 9.101025 -29.911220 14.638355 5.373934 -5.809308 -6.701565 19.668451 2.268922 5.306855 64.395877 0.905688 9.267217 -20.760206 29.857038 -2.609641 -1.071257 2.577243 -9.446239 
1.785406 0.227036 0.986020 -78.587239 5.011189 88.457249 5.476179 1.828881 6.619226 -3.126326 -9.547182 6.465216 2.443749 9.989259 -21.996978 0.000000 -0.000000 0.000000 -0.080402 -2.341451 -10.071490 3.863571 -4.705920 2.326314 5.143038 -4.405174 4.351585 0.000000 -0.000000 0.000000 -1.014411 1.005754 5.009717 3.013092 -3.809397 6.793078 2.463639 -2.331928 2.125278 1.306475 -0.216604 -0.463458 4.935520 -2.075113 -9.649000 -20.460846 -6.721746 8.256070 -62.395818 -9.756859 12.621387 9.154534 -29.867605 14.533937 5.248116 -5.741335 -6.583673 19.732533 2.323025 5.474001 64.247911 0.940013 9.168561 -20.703766 29.838786 -2.549328 -0.966770 2.600236 -9.443122 
1.784926 0.227139 0.985947 -78.676221 5.025640 88.524361 5.494708 1.775446 6.666669 -3.129258 -9.490711 6.327916 2.446060 10.043367 -21.963587 0.000000 -0.000000 0.000000 -0.035081 -2.364143 -10.155965 3.850177 -4.671522 2.399312 5.156308 -4.306891 4.364270 0.000000 -0.000000 0.000000 -0.913766 1.016745 5.027502 2.994205 -3.806771 6.767224 2.411360 -2.308757 2.077612 1.353141 -0.158671 -0.421500 4.973402 -1.982660 -9.591758 -20.433308 -6.674432 8.204465 -62.441099 -9.688798 12.557977 9.207821 -29.808268 14.385987 5.104905 -5.529243 -6.405855 19.736695 2.320257 5.527684 64.262464 0.952645 9.111194 -20.659177 29.765788 -2.538291 -0.756724 2.574925 -9.526211 
